<svg xmlns="http://www.w3.org/2000/svg" width="1080" height="870" viewBox="0 0 1080 870" role="img" aria-labelledby="title desc">
<title id="title">Reliability before and after recalibration</title><desc id="desc">Leave-one-task-out P(hacked) vs observed hack frequency · ten equal-width bins · label: labeller OR judge</desc>
<style>text{font-family:Inter,Arial,Helvetica,sans-serif} line,path{vector-effect:non-scaling-stroke}</style>
<rect x="0.00" y="0.00" width="1080.00" height="870.00" rx="0" fill="#FFFFFF"/>
<rect x="0.00" y="0.00" width="1080.00" height="98.00" rx="0" fill="#F3F7FA"/>
<text x="36.00" y="39.00" font-size="25" fill="#14263D" text-anchor="start" font-weight="700">Reliability before and after recalibration</text>
<text x="36.00" y="68.00" font-size="13" fill="#536579" text-anchor="start" font-weight="400">Leave-one-task-out P(hacked) vs observed hack frequency · ten equal-width bins · label: labeller OR judge</text>
<line x1="36.00" y1="120.00" x2="59.00" y2="120.00" stroke="#8A97A6" stroke-width="3"/>
<text x="67.00" y="124.00" font-size="13" fill="#14263D" text-anchor="start" font-weight="600">Raw confidence</text>
<line x1="226.00" y1="120.00" x2="249.00" y2="120.00" stroke="#0072B2" stroke-width="3"/>
<text x="257.00" y="124.00" font-size="13" fill="#14263D" text-anchor="start" font-weight="600">Platt</text>
<line x1="416.00" y1="120.00" x2="439.00" y2="120.00" stroke="#D55E00" stroke-width="3"/>
<text x="447.00" y="124.00" font-size="13" fill="#14263D" text-anchor="start" font-weight="600">Isotonic</text>
<text x="110.00" y="172.00" font-size="14" fill="#14263D" text-anchor="start" font-weight="600">claude-opus-4-6 · Full trace</text>
<line x1="110.00" y1="410.00" x2="360.00" y2="410.00" stroke="#E3EAF0" stroke-width="1"/>
<line x1="110.00" y1="190.00" x2="110.00" y2="410.00" stroke="#E3EAF0" stroke-width="1"/>
<text x="110.00" y="433.00" font-size="13" fill="#536579" text-anchor="middle" font-weight="400">0%</text>
<text x="98.00" y="414.00" font-size="13" fill="#536579" text-anchor="end" font-weight="400">0%</text>
<line x1="110.00" y1="366.00" x2="360.00" y2="366.00" stroke="#E3EAF0" stroke-width="1"/>
<line x1="160.00" y1="190.00" x2="160.00" y2="410.00" stroke="#E3EAF0" stroke-width="1"/>
<text x="160.00" y="433.00" font-size="13" fill="#536579" text-anchor="middle" font-weight="400">20%</text>
<text x="98.00" y="370.00" font-size="13" fill="#536579" text-anchor="end" font-weight="400">20%</text>
<line x1="110.00" y1="322.00" x2="360.00" y2="322.00" stroke="#E3EAF0" stroke-width="1"/>
<line x1="210.00" y1="190.00" x2="210.00" y2="410.00" stroke="#E3EAF0" stroke-width="1"/>
<text x="210.00" y="433.00" font-size="13" fill="#536579" text-anchor="middle" font-weight="400">40%</text>
<text x="98.00" y="326.00" font-size="13" fill="#536579" text-anchor="end" font-weight="400">40%</text>
<line x1="110.00" y1="278.00" x2="360.00" y2="278.00" stroke="#E3EAF0" stroke-width="1"/>
<line x1="260.00" y1="190.00" x2="260.00" y2="410.00" stroke="#E3EAF0" stroke-width="1"/>
<text x="260.00" y="433.00" font-size="13" fill="#536579" text-anchor="middle" font-weight="400">60%</text>
<text x="98.00" y="282.00" font-size="13" fill="#536579" text-anchor="end" font-weight="400">60%</text>
<line x1="110.00" y1="234.00" x2="360.00" y2="234.00" stroke="#E3EAF0" stroke-width="1"/>
<line x1="310.00" y1="190.00" x2="310.00" y2="410.00" stroke="#E3EAF0" stroke-width="1"/>
<text x="310.00" y="433.00" font-size="13" fill="#536579" text-anchor="middle" font-weight="400">80%</text>
<text x="98.00" y="238.00" font-size="13" fill="#536579" text-anchor="end" font-weight="400">80%</text>
<line x1="110.00" y1="190.00" x2="360.00" y2="190.00" stroke="#E3EAF0" stroke-width="1"/>
<line x1="360.00" y1="190.00" x2="360.00" y2="410.00" stroke="#E3EAF0" stroke-width="1"/>
<text x="360.00" y="433.00" font-size="13" fill="#536579" text-anchor="middle" font-weight="400">100%</text>
<text x="98.00" y="194.00" font-size="13" fill="#536579" text-anchor="end" font-weight="400">100%</text>
<text x="235.00" y="460.00" font-size="13" fill="#14263D" text-anchor="middle" font-weight="600">P(hacked)</text>
<text x="50.00" y="300.00" font-size="13" fill="#14263D" text-anchor="middle" font-weight="600" transform="rotate(-90 50 300.0)">Observed</text>
<line x1="110.00" y1="410.00" x2="360.00" y2="190.00" stroke="#536579" stroke-width="1" stroke-dasharray="6 5"/>
<path d="M 119.44,400.83 L 137.36,361.11 L 197.50,410.00 L 247.50,300.00 L 266.88,245.00 L 292.81,217.50 L 324.38,327.50 L 352.96,300.00" stroke="#8A97A6" stroke-width="2" fill="none"/>
<circle cx="119.44" cy="400.83" r="6" fill="#8A97A6"/>
<circle cx="137.36" cy="361.11" r="5.0" fill="#8A97A6"/>
<circle cx="197.50" cy="410.00" r="3.0" fill="#8A97A6"/>
<circle cx="247.50" cy="300.00" r="3.0" fill="#8A97A6"/>
<circle cx="266.88" cy="245.00" r="3.0" fill="#8A97A6"/>
<circle cx="292.81" cy="217.50" r="3.414213562373095" fill="#8A97A6"/>
<circle cx="324.38" cy="327.50" r="3.414213562373095" fill="#8A97A6"/>
<circle cx="352.96" cy="300.00" r="5.674234614174767" fill="#8A97A6"/>
<path d="M 129.17,406.21 L 140.34,352.38 L 174.36,310.00 L 197.07,257.69 L 222.06,300.00 L 249.60,376.15 L 276.78,225.20" stroke="#0072B2" stroke-width="2" fill="none"/>
<circle cx="129.17" cy="406.21" r="6" fill="#0072B2"/>
<circle cx="140.34" cy="352.38" r="5.24037034920393" fill="#0072B2"/>
<circle cx="174.36" cy="310.00" r="3.6583123951777" fill="#0072B2"/>
<circle cx="197.07" cy="257.69" r="3.802775637731995" fill="#0072B2"/>
<circle cx="222.06" cy="300.00" r="3.224744871391589" fill="#0072B2"/>
<circle cx="249.60" cy="376.15" r="4.549509756796392" fill="#0072B2"/>
<circle cx="276.78" cy="225.20" r="4.5" fill="#0072B2"/>
<path d="M 114.75,406.17 L 156.93,312.22 L 176.71,362.43 L 202.03,323.91 L 211.06,355.00 L 360.00,190.00" stroke="#D55E00" stroke-width="2" fill="none"/>
<circle cx="114.75" cy="406.17" r="6" fill="#D55E00"/>
<circle cx="156.93" cy="312.22" r="3.5" fill="#D55E00"/>
<circle cx="176.71" cy="362.43" r="5.041381265149109" fill="#D55E00"/>
<circle cx="202.03" cy="323.91" r="5.3911649915626345" fill="#D55E00"/>
<circle cx="211.06" cy="355.00" r="3.732050807568877" fill="#D55E00"/>
<circle cx="360.00" cy="190.00" r="4.23606797749979" fill="#D55E00"/>
<text x="110.00" y="480.00" font-size="11" fill="#536579" text-anchor="start" font-weight="400">ECE raw 0.155 · pla 0.145 · iso 0.032</text>
<text x="450.00" y="172.00" font-size="14" fill="#14263D" text-anchor="start" font-weight="600">claude-opus-4-6 · Report only</text>
<line x1="450.00" y1="410.00" x2="700.00" y2="410.00" stroke="#E3EAF0" stroke-width="1"/>
<line x1="450.00" y1="190.00" x2="450.00" y2="410.00" stroke="#E3EAF0" stroke-width="1"/>
<text x="450.00" y="433.00" font-size="13" fill="#536579" text-anchor="middle" font-weight="400">0%</text>
<text x="438.00" y="414.00" font-size="13" fill="#536579" text-anchor="end" font-weight="400">0%</text>
<line x1="450.00" y1="366.00" x2="700.00" y2="366.00" stroke="#E3EAF0" stroke-width="1"/>
<line x1="500.00" y1="190.00" x2="500.00" y2="410.00" stroke="#E3EAF0" stroke-width="1"/>
<text x="500.00" y="433.00" font-size="13" fill="#536579" text-anchor="middle" font-weight="400">20%</text>
<text x="438.00" y="370.00" font-size="13" fill="#536579" text-anchor="end" font-weight="400">20%</text>
<line x1="450.00" y1="322.00" x2="700.00" y2="322.00" stroke="#E3EAF0" stroke-width="1"/>
<line x1="550.00" y1="190.00" x2="550.00" y2="410.00" stroke="#E3EAF0" stroke-width="1"/>
<text x="550.00" y="433.00" font-size="13" fill="#536579" text-anchor="middle" font-weight="400">40%</text>
<text x="438.00" y="326.00" font-size="13" fill="#536579" text-anchor="end" font-weight="400">40%</text>
<line x1="450.00" y1="278.00" x2="700.00" y2="278.00" stroke="#E3EAF0" stroke-width="1"/>
<line x1="600.00" y1="190.00" x2="600.00" y2="410.00" stroke="#E3EAF0" stroke-width="1"/>
<text x="600.00" y="433.00" font-size="13" fill="#536579" text-anchor="middle" font-weight="400">60%</text>
<text x="438.00" y="282.00" font-size="13" fill="#536579" text-anchor="end" font-weight="400">60%</text>
<line x1="450.00" y1="234.00" x2="700.00" y2="234.00" stroke="#E3EAF0" stroke-width="1"/>
<line x1="650.00" y1="190.00" x2="650.00" y2="410.00" stroke="#E3EAF0" stroke-width="1"/>
<text x="650.00" y="433.00" font-size="13" fill="#536579" text-anchor="middle" font-weight="400">80%</text>
<text x="438.00" y="238.00" font-size="13" fill="#536579" text-anchor="end" font-weight="400">80%</text>
<line x1="450.00" y1="190.00" x2="700.00" y2="190.00" stroke="#E3EAF0" stroke-width="1"/>
<line x1="700.00" y1="190.00" x2="700.00" y2="410.00" stroke="#E3EAF0" stroke-width="1"/>
<text x="700.00" y="433.00" font-size="13" fill="#536579" text-anchor="middle" font-weight="400">100%</text>
<text x="438.00" y="194.00" font-size="13" fill="#536579" text-anchor="end" font-weight="400">100%</text>
<text x="575.00" y="460.00" font-size="13" fill="#14263D" text-anchor="middle" font-weight="600">P(hacked)</text>
<text x="390.00" y="300.00" font-size="13" fill="#14263D" text-anchor="middle" font-weight="600" transform="rotate(-90 390 300.0)">Observed</text>
<line x1="450.00" y1="410.00" x2="700.00" y2="190.00" stroke="#536579" stroke-width="1" stroke-dasharray="6 5"/>
<path d="M 460.50,404.26 L 475.77,314.10 L 537.50,410.00 L 587.50,270.00 L 608.00,234.00 L 631.07,347.14 L 661.82,370.00 L 692.57,294.21" stroke="#8A97A6" stroke-width="2" fill="none"/>
<circle cx="460.50" cy="404.26" r="6" fill="#8A97A6"/>
<circle cx="475.77" cy="314.10" r="5.122498999199199" fill="#8A97A6"/>
<circle cx="537.50" cy="410.00" r="3.58113883008419" fill="#8A97A6"/>
<circle cx="587.50" cy="270.00" r="3.6583123951777" fill="#8A97A6"/>
<circle cx="608.00" cy="234.00" r="3.118033988749895" fill="#8A97A6"/>
<circle cx="631.07" cy="347.14" r="3.3228756555322954" fill="#8A97A6"/>
<circle cx="661.82" cy="370.00" r="3.6583123951777" fill="#8A97A6"/>
<circle cx="692.57" cy="294.21" r="5.082207001484488" fill="#8A97A6"/>
<path d="M 473.12,410.00 L 481.30,370.85 L 512.24,382.50 L 532.09,284.29 L 559.63,390.00 L 588.48,371.18 L 614.68,213.16" stroke="#0072B2" stroke-width="2" fill="none"/>
<circle cx="473.12" cy="410.00" r="5.082207001484488" fill="#0072B2"/>
<circle cx="481.30" cy="370.85" r="6" fill="#0072B2"/>
<circle cx="512.24" cy="382.50" r="4.0" fill="#0072B2"/>
<circle cx="532.09" cy="284.29" r="4.2912878474779195" fill="#0072B2"/>
<circle cx="559.63" cy="390.00" r="3.6583123951777" fill="#0072B2"/>
<circle cx="588.48" cy="371.18" r="4.061552812808831" fill="#0072B2"/>
<circle cx="614.68" cy="213.16" r="4.1794494717703365" fill="#0072B2"/>
<path d="M 452.25,408.04 L 537.24,333.39 L 700.00,190.00" stroke="#D55E00" stroke-width="2" fill="none"/>
<circle cx="452.25" cy="408.04" r="6" fill="#D55E00"/>
<circle cx="537.24" cy="333.39" r="6" fill="#D55E00"/>
<circle cx="700.00" cy="190.00" r="4.0" fill="#D55E00"/>
<text x="450.00" y="480.00" font-size="11" fill="#536579" text-anchor="start" font-weight="400">ECE raw 0.203 · pla 0.131 · iso 0.000</text>
<text x="790.00" y="172.00" font-size="14" fill="#14263D" text-anchor="start" font-weight="600">claude-opus-4-6 · Final report</text>
<line x1="790.00" y1="410.00" x2="1040.00" y2="410.00" stroke="#E3EAF0" stroke-width="1"/>
<line x1="790.00" y1="190.00" x2="790.00" y2="410.00" stroke="#E3EAF0" stroke-width="1"/>
<text x="790.00" y="433.00" font-size="13" fill="#536579" text-anchor="middle" font-weight="400">0%</text>
<text x="778.00" y="414.00" font-size="13" fill="#536579" text-anchor="end" font-weight="400">0%</text>
<line x1="790.00" y1="366.00" x2="1040.00" y2="366.00" stroke="#E3EAF0" stroke-width="1"/>
<line x1="840.00" y1="190.00" x2="840.00" y2="410.00" stroke="#E3EAF0" stroke-width="1"/>
<text x="840.00" y="433.00" font-size="13" fill="#536579" text-anchor="middle" font-weight="400">20%</text>
<text x="778.00" y="370.00" font-size="13" fill="#536579" text-anchor="end" font-weight="400">20%</text>
<line x1="790.00" y1="322.00" x2="1040.00" y2="322.00" stroke="#E3EAF0" stroke-width="1"/>
<line x1="890.00" y1="190.00" x2="890.00" y2="410.00" stroke="#E3EAF0" stroke-width="1"/>
<text x="890.00" y="433.00" font-size="13" fill="#536579" text-anchor="middle" font-weight="400">40%</text>
<text x="778.00" y="326.00" font-size="13" fill="#536579" text-anchor="end" font-weight="400">40%</text>
<line x1="790.00" y1="278.00" x2="1040.00" y2="278.00" stroke="#E3EAF0" stroke-width="1"/>
<line x1="940.00" y1="190.00" x2="940.00" y2="410.00" stroke="#E3EAF0" stroke-width="1"/>
<text x="940.00" y="433.00" font-size="13" fill="#536579" text-anchor="middle" font-weight="400">60%</text>
<text x="778.00" y="282.00" font-size="13" fill="#536579" text-anchor="end" font-weight="400">60%</text>
<line x1="790.00" y1="234.00" x2="1040.00" y2="234.00" stroke="#E3EAF0" stroke-width="1"/>
<line x1="990.00" y1="190.00" x2="990.00" y2="410.00" stroke="#E3EAF0" stroke-width="1"/>
<text x="990.00" y="433.00" font-size="13" fill="#536579" text-anchor="middle" font-weight="400">80%</text>
<text x="778.00" y="238.00" font-size="13" fill="#536579" text-anchor="end" font-weight="400">80%</text>
<line x1="790.00" y1="190.00" x2="1040.00" y2="190.00" stroke="#E3EAF0" stroke-width="1"/>
<line x1="1040.00" y1="190.00" x2="1040.00" y2="410.00" stroke="#E3EAF0" stroke-width="1"/>
<text x="1040.00" y="433.00" font-size="13" fill="#536579" text-anchor="middle" font-weight="400">100%</text>
<text x="778.00" y="194.00" font-size="13" fill="#536579" text-anchor="end" font-weight="400">100%</text>
<text x="915.00" y="460.00" font-size="13" fill="#14263D" text-anchor="middle" font-weight="600">P(hacked)</text>
<text x="730.00" y="300.00" font-size="13" fill="#14263D" text-anchor="middle" font-weight="600" transform="rotate(-90 730 300.0)">Observed</text>
<line x1="790.00" y1="410.00" x2="1040.00" y2="190.00" stroke="#536579" stroke-width="1" stroke-dasharray="6 5"/>
<path d="M 810.00,410.00 L 820.16,399.35 L 849.82,347.14 L 868.63,317.74 L 902.50,190.00 L 924.38,245.00 L 941.67,366.00 L 970.95,368.10 L 1001.75,256.00 L 1022.50,226.67" stroke="#8A97A6" stroke-width="2" fill="none"/>
<circle cx="810.00" cy="410.00" r="2.8660254037844384" fill="#8A97A6"/>
<circle cx="820.16" cy="399.35" r="6" fill="#8A97A6"/>
<circle cx="849.82" cy="347.14" r="3.8708286933869704" fill="#8A97A6"/>
<circle cx="868.63" cy="317.74" r="4.783882181415011" fill="#8A97A6"/>
<circle cx="902.50" cy="190.00" r="3.414213562373095" fill="#8A97A6"/>
<circle cx="924.38" cy="245.00" r="3.414213562373095" fill="#8A97A6"/>
<circle cx="941.67" cy="366.00" r="3.9364916731037085" fill="#8A97A6"/>
<circle cx="970.95" cy="368.10" r="4.2912878474779195" fill="#8A97A6"/>
<circle cx="1001.75" cy="256.00" r="3.58113883008419" fill="#8A97A6"/>
<circle cx="1022.50" cy="226.67" r="3.224744871391589" fill="#8A97A6"/>
<path d="M 811.77,406.76 L 822.96,381.43 L 847.46,303.79 L 878.05,241.76 L 902.25,373.33 L 923.12,366.00 L 954.32,250.00 L 987.75,263.33" stroke="#0072B2" stroke-width="2" fill="none"/>
<circle cx="811.77" cy="406.76" r="6" fill="#0072B2"/>
<circle cx="822.96" cy="381.43" r="6" fill="#0072B2"/>
<circle cx="847.46" cy="303.79" r="4.692582403567252" fill="#0072B2"/>
<circle cx="878.05" cy="241.76" r="4.061552812808831" fill="#0072B2"/>
<circle cx="902.25" cy="373.33" r="4.121320343559642" fill="#0072B2"/>
<circle cx="923.12" cy="366.00" r="3.9364916731037085" fill="#0072B2"/>
<circle cx="954.32" cy="250.00" r="3.6583123951777" fill="#0072B2"/>
<circle cx="987.75" cy="263.33" r="2.8660254037844384" fill="#0072B2"/>
<path d="M 793.87,400.54 L 819.07,398.11 L 852.50,263.33 L 884.47,300.00 L 893.42,336.67 L 1007.51,190.00 L 1023.67,315.71" stroke="#D55E00" stroke-width="2" fill="none"/>
<circle cx="793.87" cy="400.54" r="6" fill="#D55E00"/>
<circle cx="819.07" cy="398.11" r="5.041381265149109" fill="#D55E00"/>
<circle cx="852.50" cy="263.33" r="2.8660254037844384" fill="#D55E00"/>
<circle cx="884.47" cy="300.00" r="5.082207001484488" fill="#D55E00"/>
<circle cx="893.42" cy="336.67" r="5.674234614174767" fill="#D55E00"/>
<circle cx="1007.51" cy="190.00" r="3.414213562373095" fill="#D55E00"/>
<circle cx="1023.67" cy="315.71" r="3.3228756555322954" fill="#D55E00"/>
<text x="790.00" y="480.00" font-size="11" fill="#536579" text-anchor="start" font-weight="400">ECE raw 0.161 · pla 0.129 · iso 0.082</text>
<text x="110.00" y="522.00" font-size="14" fill="#14263D" text-anchor="start" font-weight="600">claude-sonnet-4-6 · Full trace</text>
<line x1="110.00" y1="760.00" x2="360.00" y2="760.00" stroke="#E3EAF0" stroke-width="1"/>
<line x1="110.00" y1="540.00" x2="110.00" y2="760.00" stroke="#E3EAF0" stroke-width="1"/>
<text x="110.00" y="783.00" font-size="13" fill="#536579" text-anchor="middle" font-weight="400">0%</text>
<text x="98.00" y="764.00" font-size="13" fill="#536579" text-anchor="end" font-weight="400">0%</text>
<line x1="110.00" y1="716.00" x2="360.00" y2="716.00" stroke="#E3EAF0" stroke-width="1"/>
<line x1="160.00" y1="540.00" x2="160.00" y2="760.00" stroke="#E3EAF0" stroke-width="1"/>
<text x="160.00" y="783.00" font-size="13" fill="#536579" text-anchor="middle" font-weight="400">20%</text>
<text x="98.00" y="720.00" font-size="13" fill="#536579" text-anchor="end" font-weight="400">20%</text>
<line x1="110.00" y1="672.00" x2="360.00" y2="672.00" stroke="#E3EAF0" stroke-width="1"/>
<line x1="210.00" y1="540.00" x2="210.00" y2="760.00" stroke="#E3EAF0" stroke-width="1"/>
<text x="210.00" y="783.00" font-size="13" fill="#536579" text-anchor="middle" font-weight="400">40%</text>
<text x="98.00" y="676.00" font-size="13" fill="#536579" text-anchor="end" font-weight="400">40%</text>
<line x1="110.00" y1="628.00" x2="360.00" y2="628.00" stroke="#E3EAF0" stroke-width="1"/>
<line x1="260.00" y1="540.00" x2="260.00" y2="760.00" stroke="#E3EAF0" stroke-width="1"/>
<text x="260.00" y="783.00" font-size="13" fill="#536579" text-anchor="middle" font-weight="400">60%</text>
<text x="98.00" y="632.00" font-size="13" fill="#536579" text-anchor="end" font-weight="400">60%</text>
<line x1="110.00" y1="584.00" x2="360.00" y2="584.00" stroke="#E3EAF0" stroke-width="1"/>
<line x1="310.00" y1="540.00" x2="310.00" y2="760.00" stroke="#E3EAF0" stroke-width="1"/>
<text x="310.00" y="783.00" font-size="13" fill="#536579" text-anchor="middle" font-weight="400">80%</text>
<text x="98.00" y="588.00" font-size="13" fill="#536579" text-anchor="end" font-weight="400">80%</text>
<line x1="110.00" y1="540.00" x2="360.00" y2="540.00" stroke="#E3EAF0" stroke-width="1"/>
<line x1="360.00" y1="540.00" x2="360.00" y2="760.00" stroke="#E3EAF0" stroke-width="1"/>
<text x="360.00" y="783.00" font-size="13" fill="#536579" text-anchor="middle" font-weight="400">100%</text>
<text x="98.00" y="544.00" font-size="13" fill="#536579" text-anchor="end" font-weight="400">100%</text>
<text x="235.00" y="810.00" font-size="13" fill="#14263D" text-anchor="middle" font-weight="600">P(hacked)</text>
<text x="50.00" y="650.00" font-size="13" fill="#14263D" text-anchor="middle" font-weight="600" transform="rotate(-90 50 650.0)">Observed</text>
<line x1="110.00" y1="760.00" x2="360.00" y2="540.00" stroke="#536579" stroke-width="1" stroke-dasharray="6 5"/>
<path d="M 121.63,750.28 L 139.17,686.67 L 264.69,732.50 L 293.71,724.52 L 319.92,646.45 L 353.79,630.10" stroke="#8A97A6" stroke-width="2" fill="none"/>
<circle cx="121.63" cy="750.28" r="6" fill="#8A97A6"/>
<circle cx="139.17" cy="686.67" r="2.8660254037844384" fill="#8A97A6"/>
<circle cx="264.69" cy="732.50" r="3.414213562373095" fill="#8A97A6"/>
<circle cx="293.71" cy="724.52" r="4.783882181415011" fill="#8A97A6"/>
<circle cx="319.92" cy="646.45" r="4.783882181415011" fill="#8A97A6"/>
<circle cx="353.79" cy="630.10" r="6" fill="#8A97A6"/>
<path d="M 119.94,749.24 L 176.02,705.00 L 196.06,670.37 L 222.73,665.71 L 251.39,693.49 L 279.78,575.20 L 288.07,563.57" stroke="#0072B2" stroke-width="2" fill="none"/>
<circle cx="119.94" cy="749.24" r="6" fill="#0072B2"/>
<circle cx="176.02" cy="705.00" r="5.3166247903554" fill="#0072B2"/>
<circle cx="196.06" cy="670.37" r="4.598076211353316" fill="#0072B2"/>
<circle cx="222.73" cy="665.71" r="3.3228756555322954" fill="#0072B2"/>
<circle cx="251.39" cy="693.49" r="5.278719262151" fill="#0072B2"/>
<circle cx="279.78" cy="575.20" r="4.5" fill="#0072B2"/>
<circle cx="288.07" cy="563.57" r="4.645751311064591" fill="#0072B2"/>
<path d="M 112.96,757.37 L 154.48,669.41 L 169.59,727.00 L 205.26,673.57 L 344.38,553.75" stroke="#D55E00" stroke-width="2" fill="none"/>
<circle cx="112.96" cy="757.37" r="6" fill="#D55E00"/>
<circle cx="154.48" cy="669.41" r="4.061552812808831" fill="#D55E00"/>
<circle cx="169.59" cy="727.00" r="5.16227766016838" fill="#D55E00"/>
<circle cx="205.26" cy="673.57" r="6" fill="#D55E00"/>
<circle cx="344.38" cy="553.75" r="5.464101615137754" fill="#D55E00"/>
<text x="110.00" y="830.00" font-size="11" fill="#536579" text-anchor="start" font-weight="400">ECE raw 0.204 · pla 0.069 · iso 0.029</text>
<text x="450.00" y="522.00" font-size="14" fill="#14263D" text-anchor="start" font-weight="600">claude-sonnet-4-6 · Report only</text>
<line x1="450.00" y1="760.00" x2="700.00" y2="760.00" stroke="#E3EAF0" stroke-width="1"/>
<line x1="450.00" y1="540.00" x2="450.00" y2="760.00" stroke="#E3EAF0" stroke-width="1"/>
<text x="450.00" y="783.00" font-size="13" fill="#536579" text-anchor="middle" font-weight="400">0%</text>
<text x="438.00" y="764.00" font-size="13" fill="#536579" text-anchor="end" font-weight="400">0%</text>
<line x1="450.00" y1="716.00" x2="700.00" y2="716.00" stroke="#E3EAF0" stroke-width="1"/>
<line x1="500.00" y1="540.00" x2="500.00" y2="760.00" stroke="#E3EAF0" stroke-width="1"/>
<text x="500.00" y="783.00" font-size="13" fill="#536579" text-anchor="middle" font-weight="400">20%</text>
<text x="438.00" y="720.00" font-size="13" fill="#536579" text-anchor="end" font-weight="400">20%</text>
<line x1="450.00" y1="672.00" x2="700.00" y2="672.00" stroke="#E3EAF0" stroke-width="1"/>
<line x1="550.00" y1="540.00" x2="550.00" y2="760.00" stroke="#E3EAF0" stroke-width="1"/>
<text x="550.00" y="783.00" font-size="13" fill="#536579" text-anchor="middle" font-weight="400">40%</text>
<text x="438.00" y="676.00" font-size="13" fill="#536579" text-anchor="end" font-weight="400">40%</text>
<line x1="450.00" y1="628.00" x2="700.00" y2="628.00" stroke="#E3EAF0" stroke-width="1"/>
<line x1="600.00" y1="540.00" x2="600.00" y2="760.00" stroke="#E3EAF0" stroke-width="1"/>
<text x="600.00" y="783.00" font-size="13" fill="#536579" text-anchor="middle" font-weight="400">60%</text>
<text x="438.00" y="632.00" font-size="13" fill="#536579" text-anchor="end" font-weight="400">60%</text>
<line x1="450.00" y1="584.00" x2="700.00" y2="584.00" stroke="#E3EAF0" stroke-width="1"/>
<line x1="650.00" y1="540.00" x2="650.00" y2="760.00" stroke="#E3EAF0" stroke-width="1"/>
<text x="650.00" y="783.00" font-size="13" fill="#536579" text-anchor="middle" font-weight="400">80%</text>
<text x="438.00" y="588.00" font-size="13" fill="#536579" text-anchor="end" font-weight="400">80%</text>
<line x1="450.00" y1="540.00" x2="700.00" y2="540.00" stroke="#E3EAF0" stroke-width="1"/>
<line x1="700.00" y1="540.00" x2="700.00" y2="760.00" stroke="#E3EAF0" stroke-width="1"/>
<text x="700.00" y="783.00" font-size="13" fill="#536579" text-anchor="middle" font-weight="400">100%</text>
<text x="438.00" y="544.00" font-size="13" fill="#536579" text-anchor="end" font-weight="400">100%</text>
<text x="575.00" y="810.00" font-size="13" fill="#14263D" text-anchor="middle" font-weight="600">P(hacked)</text>
<text x="390.00" y="650.00" font-size="13" fill="#14263D" text-anchor="middle" font-weight="600" transform="rotate(-90 390 650.0)">Observed</text>
<line x1="450.00" y1="760.00" x2="700.00" y2="540.00" stroke="#536579" stroke-width="1" stroke-dasharray="6 5"/>
<path d="M 461.64,757.47 L 476.79,571.43 L 604.17,686.67 L 634.32,685.00 L 657.45,650.00 L 691.95,642.86" stroke="#8A97A6" stroke-width="2" fill="none"/>
<circle cx="461.64" cy="757.47" r="6" fill="#8A97A6"/>
<circle cx="476.79" cy="571.43" r="3.3228756555322954" fill="#8A97A6"/>
<circle cx="604.17" cy="686.67" r="2.8660254037844384" fill="#8A97A6"/>
<circle cx="634.32" cy="685.00" r="5.3166247903554" fill="#8A97A6"/>
<circle cx="657.45" cy="650.00" r="5.60555127546399" fill="#8A97A6"/>
<circle cx="691.95" cy="642.86" r="6" fill="#8A97A6"/>
<path d="M 463.92,750.28 L 519.23,644.76 L 538.57,669.59 L 563.16,644.21 L 589.65,741.67 L 607.06,684.14 L 633.05,549.17" stroke="#0072B2" stroke-width="2" fill="none"/>
<circle cx="463.92" cy="750.28" r="6" fill="#0072B2"/>
<circle cx="519.23" cy="644.76" r="4.2912878474779195" fill="#0072B2"/>
<circle cx="538.57" cy="669.59" r="6" fill="#0072B2"/>
<circle cx="563.16" cy="644.21" r="4.1794494717703365" fill="#0072B2"/>
<circle cx="589.65" cy="741.67" r="3.732050807568877" fill="#0072B2"/>
<circle cx="607.06" cy="684.14" r="4.692582403567252" fill="#0072B2"/>
<circle cx="633.05" cy="549.17" r="4.449489742783178" fill="#0072B2"/>
<path d="M 451.54,757.33 L 481.85,760.00 L 543.84,645.71 L 556.47,698.40 L 603.65,567.50 L 689.52,549.17" stroke="#D55E00" stroke-width="2" fill="none"/>
<circle cx="451.54" cy="757.33" r="6" fill="#D55E00"/>
<circle cx="481.85" cy="760.00" r="3.5" fill="#D55E00"/>
<circle cx="543.84" cy="645.71" r="6" fill="#D55E00"/>
<circle cx="556.47" cy="698.40" r="6" fill="#D55E00"/>
<circle cx="603.65" cy="567.50" r="3.414213562373095" fill="#D55E00"/>
<circle cx="689.52" cy="549.17" r="4.449489742783178" fill="#D55E00"/>
<text x="450.00" y="830.00" font-size="11" fill="#536579" text-anchor="start" font-weight="400">ECE raw 0.227 · pla 0.090 · iso 0.078</text>
<text x="790.00" y="522.00" font-size="14" fill="#14263D" text-anchor="start" font-weight="600">claude-sonnet-4-6 · Final report</text>
<line x1="790.00" y1="760.00" x2="1040.00" y2="760.00" stroke="#E3EAF0" stroke-width="1"/>
<line x1="790.00" y1="540.00" x2="790.00" y2="760.00" stroke="#E3EAF0" stroke-width="1"/>
<text x="790.00" y="783.00" font-size="13" fill="#536579" text-anchor="middle" font-weight="400">0%</text>
<text x="778.00" y="764.00" font-size="13" fill="#536579" text-anchor="end" font-weight="400">0%</text>
<line x1="790.00" y1="716.00" x2="1040.00" y2="716.00" stroke="#E3EAF0" stroke-width="1"/>
<line x1="840.00" y1="540.00" x2="840.00" y2="760.00" stroke="#E3EAF0" stroke-width="1"/>
<text x="840.00" y="783.00" font-size="13" fill="#536579" text-anchor="middle" font-weight="400">20%</text>
<text x="778.00" y="720.00" font-size="13" fill="#536579" text-anchor="end" font-weight="400">20%</text>
<line x1="790.00" y1="672.00" x2="1040.00" y2="672.00" stroke="#E3EAF0" stroke-width="1"/>
<line x1="890.00" y1="540.00" x2="890.00" y2="760.00" stroke="#E3EAF0" stroke-width="1"/>
<text x="890.00" y="783.00" font-size="13" fill="#536579" text-anchor="middle" font-weight="400">40%</text>
<text x="778.00" y="676.00" font-size="13" fill="#536579" text-anchor="end" font-weight="400">40%</text>
<line x1="790.00" y1="628.00" x2="1040.00" y2="628.00" stroke="#E3EAF0" stroke-width="1"/>
<line x1="940.00" y1="540.00" x2="940.00" y2="760.00" stroke="#E3EAF0" stroke-width="1"/>
<text x="940.00" y="783.00" font-size="13" fill="#536579" text-anchor="middle" font-weight="400">60%</text>
<text x="778.00" y="632.00" font-size="13" fill="#536579" text-anchor="end" font-weight="400">60%</text>
<line x1="790.00" y1="584.00" x2="1040.00" y2="584.00" stroke="#E3EAF0" stroke-width="1"/>
<line x1="990.00" y1="540.00" x2="990.00" y2="760.00" stroke="#E3EAF0" stroke-width="1"/>
<text x="990.00" y="783.00" font-size="13" fill="#536579" text-anchor="middle" font-weight="400">80%</text>
<text x="778.00" y="588.00" font-size="13" fill="#536579" text-anchor="end" font-weight="400">80%</text>
<line x1="790.00" y1="540.00" x2="1040.00" y2="540.00" stroke="#E3EAF0" stroke-width="1"/>
<line x1="1040.00" y1="540.00" x2="1040.00" y2="760.00" stroke="#E3EAF0" stroke-width="1"/>
<text x="1040.00" y="783.00" font-size="13" fill="#536579" text-anchor="middle" font-weight="400">100%</text>
<text x="778.00" y="544.00" font-size="13" fill="#536579" text-anchor="end" font-weight="400">100%</text>
<text x="915.00" y="810.00" font-size="13" fill="#14263D" text-anchor="middle" font-weight="600">P(hacked)</text>
<text x="730.00" y="650.00" font-size="13" fill="#14263D" text-anchor="middle" font-weight="600" transform="rotate(-90 730 650.0)">Observed</text>
<line x1="790.00" y1="760.00" x2="1040.00" y2="540.00" stroke="#536579" stroke-width="1" stroke-dasharray="6 5"/>
<path d="M 809.79,760.00 L 817.58,756.59 L 845.73,691.25 L 874.38,677.50 L 927.50,686.67 L 949.17,613.33 L 971.55,634.83 L 997.23,678.70 L 1022.50,540.00" stroke="#8A97A6" stroke-width="2" fill="none"/>
<circle cx="809.79" cy="760.00" r="4.958039891549808" fill="#8A97A6"/>
<circle cx="817.58" cy="756.59" r="6" fill="#8A97A6"/>
<circle cx="845.73" cy="691.25" r="5.464101615137754" fill="#8A97A6"/>
<circle cx="874.38" cy="677.50" r="4.0" fill="#8A97A6"/>
<circle cx="927.50" cy="686.67" r="2.8660254037844384" fill="#8A97A6"/>
<circle cx="949.17" cy="613.33" r="3.9364916731037085" fill="#8A97A6"/>
<circle cx="971.55" cy="634.83" r="5.807886552931954" fill="#8A97A6"/>
<circle cx="997.23" cy="678.70" r="5.3911649915626345" fill="#8A97A6"/>
<circle cx="1022.50" cy="540.00" r="3.414213562373095" fill="#8A97A6"/>
<path d="M 807.81,757.12 L 824.21,700.63 L 844.69,681.43 L 881.77,665.71 L 907.95,611.84 L 927.30,682.70 L 946.80,668.97 L 980.52,540.00" stroke="#0072B2" stroke-width="2" fill="none"/>
<circle cx="807.81" cy="757.12" r="6" fill="#0072B2"/>
<circle cx="824.21" cy="700.63" r="5.9686269665968865" fill="#0072B2"/>
<circle cx="844.69" cy="681.43" r="3.8708286933869704" fill="#0072B2"/>
<circle cx="881.77" cy="665.71" r="3.3228756555322954" fill="#0072B2"/>
<circle cx="907.95" cy="611.84" r="5.5" fill="#0072B2"/>
<circle cx="927.30" cy="682.70" r="5.041381265149109" fill="#0072B2"/>
<circle cx="946.80" cy="668.97" r="4.692582403567252" fill="#0072B2"/>
<circle cx="980.52" cy="540.00" r="3.224744871391589" fill="#0072B2"/>
<path d="M 793.02,757.32 L 862.80,650.00 L 873.97,688.26 L 909.64,653.47 L 916.34,668.33 L 956.67,540.00 L 1040.00,600.00" stroke="#D55E00" stroke-width="2" fill="none"/>
<circle cx="793.02" cy="757.32" r="6" fill="#D55E00"/>
<circle cx="862.80" cy="650.00" r="4.0" fill="#D55E00"/>
<circle cx="873.97" cy="688.26" r="5.3911649915626345" fill="#D55E00"/>
<circle cx="909.64" cy="653.47" r="6" fill="#D55E00"/>
<circle cx="916.34" cy="668.33" r="4.449489742783178" fill="#D55E00"/>
<circle cx="956.67" cy="540.00" r="2.8660254037844384" fill="#D55E00"/>
<circle cx="1040.00" cy="600.00" r="3.6583123951777" fill="#D55E00"/>
<text x="790.00" y="830.00" font-size="11" fill="#536579" text-anchor="start" font-weight="400">ECE raw 0.144 · pla 0.124 · iso 0.030</text>
<text x="36.00" y="853.00" font-size="12" fill="#536579" text-anchor="start" font-weight="400">Dashed diagonal: perfect calibration. Larger dots: more trajectories. Bins with &lt; 3 trajectories omitted (ECE still counts them).</text>
</svg>
